# xmcd
#
# Track frame offsets:
#	150
#	22036
#	42733
#	67729
#	90147
#	110125
#	131845
#	149226
#	170221
#	187155
#	210067
#	228403
#
# Disc length: 3389 seconds
#
# Revision: 0
# Processed by: cddbd v1.5.1PL2 Copyright (c) Steve Scherf et al.
# Submitted via: dBpowerAMP V4.0
#
DISCID=b30d3b0c
DTITLE=Tevin Campbell - Back To The World
DYEAR=1900
DGENRE=R&B
TTITLE0=Back To The World
TTITLE1=Dry Your Eyes
TTITLE2=You don't have to worry
TTITLE3=I've Got it bad
TTITLE4=tell me where
TTITLE5=could it be
TTITLE6=i need you
TTITLE7=i'll be there
TTITLE8=we can work it out
TTITLE9=beautiful thing
TTITLE10=could you learn to love
TTITLE11=break of dawn
EXTD=
EXTT0=
EXTT1=
EXTT2=
EXTT3=
EXTT4=
EXTT5=
EXTT6=
EXTT7=
EXTT8=
EXTT9=
EXTT10=
EXTT11=
PLAYORDER=
